<?xml version="1.0" encoding="UTF-8" standalone="no"?>
<!-- Generator: Adobe Illustrator 19.0.0, SVG Export Plug-In . SVG Version: 6.00 Build 0)  -->

<svg
   xmlns:dc="http://purl.org/dc/elements/1.1/"
   xmlns:cc="http://creativecommons.org/ns#"
   xmlns:rdf="http://www.w3.org/1999/02/22-rdf-syntax-ns#"
   xmlns:svg="http://www.w3.org/2000/svg"
   xmlns="http://www.w3.org/2000/svg"
   xmlns:sodipodi="http://sodipodi.sourceforge.net/DTD/sodipodi-0.dtd"
   xmlns:inkscape="http://www.inkscape.org/namespaces/inkscape"
   version="1.1"
   id="Capa_1"
   x="0px"
   y="0px"
   viewBox="0 0 55.751 55.751"
   style="enable-background:new 0 0 55.751 55.751;"
   xml:space="preserve"
   sodipodi:docname="001-down-arrow.svg"
   inkscape:export-filename="/home/carlos/Documents/Txt2Morse/imagenes/001-down-arrow.png"
   inkscape:export-xdpi="96"
   inkscape:export-ydpi="96"
   inkscape:version="0.92.2 (5c3e80d, 2017-08-06)"><metadata
     id="metadata41"><rdf:RDF><cc:Work
         rdf:about=""><dc:format>image/svg+xml</dc:format><dc:type
           rdf:resource="http://purl.org/dc/dcmitype/StillImage" /></cc:Work></rdf:RDF></metadata><defs
     id="defs39" /><sodipodi:namedview
     pagecolor="#ffffff"
     bordercolor="#666666"
     borderopacity="1"
     objecttolerance="10"
     gridtolerance="10"
     guidetolerance="10"
     inkscape:pageopacity="0"
     inkscape:pageshadow="2"
     inkscape:window-width="1366"
     inkscape:window-height="680"
     id="namedview37"
     showgrid="false"
     inkscape:zoom="5.1060056"
     inkscape:cx="24.006852"
     inkscape:cy="38.312801"
     inkscape:window-x="0"
     inkscape:window-y="31"
     inkscape:window-maximized="1"
     inkscape:current-layer="Capa_1" /><g
     id="g4"><path
       d="M31.836,43.006c0.282-0.281,0.518-0.59,0.725-0.912L54.17,20.485c2.107-2.109,2.109-5.528,0-7.638   c-2.109-2.107-5.527-2.109-7.638,0l-18.608,18.61L9.217,12.753c-2.109-2.108-5.527-2.109-7.637,0   C0.527,13.809-0.002,15.19,0,16.571c-0.002,1.382,0.527,2.764,1.582,3.816l21.703,21.706c0.207,0.323,0.445,0.631,0.729,0.913   c1.078,1.078,2.496,1.597,3.91,1.572C29.336,44.604,30.758,44.084,31.836,43.006z"
       id="path2" /></g><g
     id="g6" /><g
     id="g8" /><g
     id="g10" /><g
     id="g12" /><g
     id="g14" /><g
     id="g16" /><g
     id="g18" /><g
     id="g20" /><g
     id="g22" /><g
     id="g24" /><g
     id="g26" /><g
     id="g28" /><g
     id="g30" /><g
     id="g32" /><g
     id="g34" /></svg>