<?xml version="1.0" encoding="UTF-8" standalone="no"?>
<!-- Created with Inkscape (http://www.inkscape.org/) -->

<svg
   xmlns:dc="http://purl.org/dc/elements/1.1/"
   xmlns:cc="http://creativecommons.org/ns#"
   xmlns:rdf="http://www.w3.org/1999/02/22-rdf-syntax-ns#"
   xmlns:svg="http://www.w3.org/2000/svg"
   xmlns="http://www.w3.org/2000/svg"
   xmlns:sodipodi="http://sodipodi.sourceforge.net/DTD/sodipodi-0.dtd"
   xmlns:inkscape="http://www.inkscape.org/namespaces/inkscape"
   width="54.74081mm"
   height="51.390934mm"
   viewBox="0 0 54.766878 51.390933"
   version="1.1"
   id="svg8"
   inkscape:version="0.92.2 (5c3e80d, 2017-08-06)"
   sodipodi:docname="icon.svg"
   inkscape:export-filename="/home/carlos/Documents/Txt2Morse/imagenes/icono.png"
   inkscape:export-xdpi="98.850121"
   inkscape:export-ydpi="98.850121">
  <defs
     id="defs2" />
  <sodipodi:namedview
     id="base"
     pagecolor="#ffffff"
     bordercolor="#666666"
     borderopacity="1.0"
     inkscape:pageopacity="0.0"
     inkscape:pageshadow="2"
     inkscape:zoom="0.86267027"
     inkscape:cx="78.036428"
     inkscape:cy="70.460549"
     inkscape:document-units="mm"
     inkscape:current-layer="layer1"
     showgrid="false"
     inkscape:pagecheckerboard="true"
     fit-margin-top="0"
     fit-margin-left="0"
     fit-margin-right="0"
     fit-margin-bottom="0"
     inkscape:window-width="1366"
     inkscape:window-height="680"
     inkscape:window-x="0"
     inkscape:window-y="31"
     inkscape:window-maximized="1"
     inkscape:snap-global="false"
     showguides="false" />
  <metadata
     id="metadata5">
    <rdf:RDF>
      <cc:Work
         rdf:about="">
        <dc:format>image/svg+xml</dc:format>
        <dc:type
           rdf:resource="http://purl.org/dc/dcmitype/StillImage" />
        <dc:title></dc:title>
      </cc:Work>
    </rdf:RDF>
  </metadata>
  <g
     inkscape:label="Layer 1"
     inkscape:groupmode="layer"
     id="layer1"
     transform="translate(-55.704123,-113.30004)">
    <rect
       style="opacity:0.98999999;fill:#608bff;fill-opacity:1;paint-order:fill markers stroke"
       id="rect12"
       width="54.328651"
       height="51.198116"
       x="55.990433"
       y="113.50471"
       ry="5.4784312" />
    <path
       style="opacity:0.98999999;fill:#333333;fill-opacity:0;stroke-width:0.29450887;paint-order:fill markers stroke"
       d="m 110.37531,126.07863 c -1e-5,11.04719 -8.78046,38.38336 -27.082987,38.38336 -18.302532,0 -27.588195,-30.75675 -27.5882,-42.83134 -3e-6,-12.07459 9.109308,-7.39227 27.444082,-7.70537 30.414345,-0.51938 27.227105,1.10617 27.227105,12.15335 z"
       id="path854"
       inkscape:connector-curvature="0"
       sodipodi:nodetypes="sssss" />
    <g
       id="g850"
       transform="translate(1.9046432,8.7451907)"
       style="fill:#ffffff;fill-opacity:1">
      <rect
         ry="1.5280755"
         y="119.03631"
         x="59.66497"
         height="4.319993"
         width="9.8621531"
         id="rect822-2-9"
         style="opacity:0.98999999;fill:#ffffff;fill-opacity:1;stroke-width:0.62380117;paint-order:fill markers stroke" />
      <g
         style="fill:#ffffff;fill-opacity:1"
         transform="translate(0.65180801,-9.4431952)"
         id="g4941">
        <ellipse
           style="opacity:0.98999999;fill:#ffffff;fill-opacity:1;stroke-width:0.76019776;paint-order:fill markers stroke"
           id="path829"
           cy="139.16214"
           cx="67.318596"
           rx="2.3394752"
           ry="2.27777" />
        <ellipse
           style="opacity:0.98999999;fill:#ffffff;fill-opacity:1;stroke-width:0.76019776;paint-order:fill markers stroke"
           id="path829-6"
           cy="139.16214"
           cx="61.352634"
           rx="2.3394752"
           ry="2.27777" />
        <rect
           style="opacity:0.98999999;fill:#ffffff;fill-opacity:1;stroke-width:0.62380117;paint-order:fill markers stroke"
           id="rect822-2"
           width="9.8621531"
           height="4.319993"
           x="70.945084"
           y="137.00214"
           ry="1.5280755" />
        <rect
           style="opacity:0.98999999;fill:#ffffff;fill-opacity:1;stroke-width:0.62380117;paint-order:fill markers stroke"
           id="rect822-2-1"
           width="9.8621531"
           height="4.319993"
           x="82.094254"
           y="137.00214"
           ry="1.5280755" />
        <rect
           style="opacity:0.98999999;fill:#ffffff;fill-opacity:1;stroke-width:0.62380117;paint-order:fill markers stroke"
           id="rect822-2-2"
           width="9.8621531"
           height="4.319993"
           x="93.243416"
           y="137.00214"
           ry="1.5280755" />
      </g>
      <g
         style="fill:#ffffff;fill-opacity:1"
         transform="translate(1.0954635,-11.046557)"
         id="g4934">
        <rect
           style="opacity:0.98999999;fill:#ffffff;fill-opacity:1;stroke-width:0.62380117;paint-order:fill markers stroke"
           id="rect822-2-7"
           width="9.8621531"
           height="4.319993"
           x="58.569504"
           y="147.12814"
           ry="1.5280755" />
        <rect
           style="opacity:0.98999999;fill:#ffffff;fill-opacity:1;stroke-width:0.62380117;paint-order:fill markers stroke"
           id="rect822-2-0"
           width="9.8621531"
           height="4.319993"
           x="69.769485"
           y="147.12814"
           ry="1.5280755" />
      </g>
    </g>
    <g
       id="g2422"
       transform="translate(-1.3018489,-28.154088)">
      <ellipse
         ry="7.3771458"
         rx="7.7026067"
         cy="152.38202"
         cx="97.711052"
         id="path2398"
         style="opacity:0.98999999;fill:#fff300;fill-opacity:1;stroke-width:0.93051261;paint-order:fill markers stroke" />
      <path
         style="fill:#000000;fill-opacity:1;stroke:#abb72e;stroke-width:0.0428335;stroke-opacity:1"
         d="m 97.185771,157.76293 c -0.287743,-0.12679 -0.547693,-0.26166 -0.577666,-0.2997 -0.03205,-0.0408 -0.0545,-0.19543 -0.0545,-0.37577 0,-0.27573 0.01036,-0.31316 0.10285,-0.37165 0.192547,-0.12179 0.274407,-0.0298 0.299706,0.33663 0.0115,0.16664 0.01538,0.17012 0.3822,0.34414 0.203817,0.0967 0.406925,0.17717 0.451349,0.17885 0.100829,0.004 0.819424,-0.31818 0.865169,-0.38767 0.01852,-0.0281 0.03397,-0.13027 0.03434,-0.22699 3.93e-4,-0.10299 0.02905,-0.20324 0.06918,-0.24198 0.08511,-0.0822 0.106291,-0.0823 0.226971,-5e-4 0.08325,0.0563 0.0969,0.10408 0.0969,0.33944 0,0.15065 -0.02146,0.31263 -0.0477,0.35993 -0.05499,0.0992 -1.083728,0.58331 -1.22999,0.57885 -0.0526,-0.001 -0.331065,-0.10666 -0.618809,-0.23346 z m -0.889666,-1.41662 c -0.222978,-0.0771 -0.331064,-0.245 -0.331064,-0.51425 0,-0.27754 0.11021,-0.43951 0.352239,-0.51766 0.251012,-0.0811 2.878224,-0.0547 3.010591,0.0302 0.147901,0.0949 0.233966,0.27418 0.233966,0.48742 0,0.22736 -0.09605,0.4102 -0.257891,0.49089 -0.156999,0.0783 -2.789855,0.0987 -3.007841,0.0233 z m 2.851555,-0.51425 v -0.12627 h -1.372724 c -1.289587,0 -1.373645,0.005 -1.38791,0.0761 -0.04021,0.20153 -0.05628,0.19937 1.397082,0.18752 l 1.363552,-0.0111 z m -3.028958,-0.71418 c -0.03509,-0.0408 -0.04381,-0.13037 -0.02559,-0.26301 0.05295,-0.3857 -0.130648,-0.85972 -0.607637,-1.56883 -0.385449,-0.57303 -0.523603,-0.86631 -0.613857,-1.3031 -0.31318,-1.51567 0.671124,-2.99394 2.246349,-3.37365 0.513464,-0.12379 1.138484,-0.0972 1.654806,0.0703 0.749,0.24309 1.374657,0.77454 1.730107,1.46961 0.25466,0.49802 0.33985,0.89007 0.30667,1.41138 -0.0427,0.67143 -0.15543,0.96608 -0.65833,1.72147 -0.44325,0.6658 -0.55466,0.93753 -0.579631,1.41371 -0.02058,0.3925 -0.05511,0.48395 -0.182725,0.48395 -0.166681,0 -0.241464,-0.15745 -0.236985,-0.49895 0.0062,-0.46629 0.215114,-0.97313 0.669382,-1.62333 0.449459,-0.6433 0.582719,-1.01993 0.581769,-1.64414 -8e-4,-0.73301 -0.28809,-1.35848 -0.847419,-1.84706 -0.456773,-0.399 -1.136594,-0.6554 -1.737676,-0.6554 -1.152447,0 -2.211629,0.79112 -2.533417,1.89226 -0.03044,0.10415 -0.05484,0.38821 -0.05422,0.63124 0.0014,0.57942 0.127928,0.94845 0.525759,1.53441 0.638209,0.94 0.872182,1.61073 0.707623,2.02851 -0.07309,0.18558 -0.239182,0.24363 -0.344982,0.12057 z m -2.913384,-0.24111 c -0.02877,-0.0278 -0.05231,-0.094 -0.05231,-0.14714 0,-0.076 0.147399,-0.20221 0.686661,-0.58842 0.850066,-0.60878 0.90099,-0.63811 1.001908,-0.57705 0.04484,0.0271 0.07713,0.0976 0.07713,0.16833 0,0.10687 -0.06894,0.17161 -0.566768,0.53231 -0.947322,0.6864 -1.026001,0.72839 -1.146615,0.61197 z m 8.238142,-0.45468 c -0.38906,-0.27785 -0.71966,-0.53608 -0.73467,-0.57385 -0.0413,-0.10393 0.0457,-0.20337 0.18717,-0.21395 0.10138,-0.007 0.25964,0.0882 0.79983,0.48396 0.37039,0.27137 0.69327,0.52542 0.71753,0.56458 0.0521,0.0841 -0.0728,0.24443 -0.19041,0.24443 -0.0396,0 -0.39039,-0.22732 -0.77945,-0.50517 z m -9.181095,-2.71716 c -0.08159,-0.0787 -0.0886,-0.19223 -0.01619,-0.26213 0.07389,-0.0714 1.739773,-0.0714 1.813657,0 0.06725,0.065 0.06725,0.21283 0,0.27775 -0.03706,0.0358 -0.29674,0.0505 -0.890635,0.0505 -0.703977,0 -0.849297,-0.0107 -0.906829,-0.0661 z m 9.270085,0.0156 c -0.0288,-0.0278 -0.0523,-0.0903 -0.0523,-0.13887 0,-0.17656 0.0635,-0.18939 0.93735,-0.18939 0.85844,0 0.93734,0.0146 0.93734,0.17375 0,0.04 -0.0308,0.1025 -0.0685,0.13888 -0.0574,0.0554 -0.20087,0.0661 -0.88503,0.0661 -0.57694,0 -0.83187,-0.0148 -0.86884,-0.0504 z m -5.842073,-0.16834 c -0.120898,-0.1167 -0.02406,-0.6403 0.195999,-1.05976 0.299768,-0.5714 1.048282,-1.03597 1.669168,-1.03597 0.223077,0 0.305989,0.0531 0.305989,0.19631 0,0.11464 -0.08621,0.16243 -0.353581,0.19604 -0.383419,0.0482 -0.697387,0.19448 -0.956426,0.44564 -0.287419,0.27867 -0.424218,0.53394 -0.492937,0.9198 -0.02774,0.15578 -0.0662,0.30691 -0.08547,0.33584 -0.04454,0.0669 -0.214313,0.0682 -0.282744,10e-4 z m -1.770871,-2.48327 c -0.731607,-0.5179 -0.840035,-0.6335 -0.722437,-0.77027 0.102166,-0.11883 0.241409,-0.06 0.806083,0.34064 0.808836,0.57387 0.89375,0.64342 0.89375,0.73199 0,0.0913 -0.110388,0.21144 -0.194295,0.21144 -0.0315,0 -0.383896,-0.23121 -0.783101,-0.5138 z m 6.908644,0.36882 c -0.12355,-0.1437 -0.0336,-0.24505 0.64541,-0.72683 0.68635,-0.48702 0.83402,-0.54958 0.92212,-0.39068 0.0757,0.13662 -0.006,0.22357 -0.6291,0.66959 -0.76736,0.54925 -0.82688,0.57766 -0.93843,0.44792 z"
         id="path2373"
         inkscape:connector-curvature="0" />
    </g>
    <g
       id="g2470">
      <g
         transform="translate(20.883838,1.0848742)"
         style="fill:#fdfdfd;fill-opacity:1"
         id="g2418">
        <ellipse
           style="opacity:0.98999999;fill:#fdfdfd;fill-opacity:1;stroke-width:0.93051261;paint-order:fill markers stroke"
           id="path2398-3"
           cx="75.037178"
           cy="152.59898"
           rx="7.7026067"
           ry="7.3771458" />
      </g>
      <path
         style="fill:#000000;stroke-width:0.04295978"
         d="m 96.092215,157.21859 c -0.01571,-0.0167 -0.14825,-1.15164 -0.294533,-2.5219 -0.286653,-2.68517 -0.303613,-2.81202 -0.369841,-2.76609 -0.0241,0.0167 -0.163755,0.71776 -0.31033,1.55792 -0.146577,0.84014 -0.281022,1.54304 -0.29877,1.562 -0.04081,0.0436 -0.485352,0.0455 -0.525844,0.002 -0.01661,-0.0177 -0.06796,-0.26513 -0.114122,-0.54975 -0.140201,-0.8645 -0.174695,-0.79476 -0.339624,0.68671 -0.05878,0.52795 -0.118546,0.99524 -0.132825,1.03844 -0.02267,0.0686 -0.05919,0.0785 -0.288316,0.0785 -0.316347,0 -0.273358,0.0902 -0.449368,-0.94244 -0.166656,-0.97771 -0.183875,-1.05178 -0.239291,-1.02917 -0.02464,0.0101 -0.08509,0.13971 -0.134308,0.28812 -0.04922,0.1484 -0.11409,0.29022 -0.144147,0.31515 -0.03435,0.0285 -0.144736,0.0414 -0.29721,0.0349 l -0.24256,-0.0104 -0.148209,-0.40142 c -0.08151,-0.22077 -0.167494,-0.41419 -0.191066,-0.42981 -0.02357,-0.0157 -0.09288,0.0276 -0.154028,0.096 l -0.111172,0.12438 h -0.979937 -0.979937 v -0.19182 -0.19199 h 0.784902 c 0.886156,0 0.846942,0.0108 1.081944,-0.29888 0.17468,-0.23022 0.238363,-0.26191 0.475287,-0.23653 0.244727,0.0262 0.280705,0.0561 0.365063,0.30344 0.03775,0.11068 0.09244,0.20145 0.121519,0.20171 0.02908,2.5e-4 0.108635,-0.15382 0.176791,-0.3424 0.241835,-0.66916 0.194228,-0.60475 0.446507,-0.60414 0.122469,2.7e-4 0.249037,0.0121 0.281261,0.0262 0.03223,0.0141 0.08646,0.18272 0.120524,0.37469 0.09478,0.53412 0.119065,0.62 0.166317,0.58802 0.02399,-0.0162 0.106826,-0.56358 0.18408,-1.2163 0.07726,-0.65272 0.15627,-1.19651 0.175589,-1.2084 0.06133,-0.0377 0.411554,-0.0605 0.48301,-0.0314 0.04612,0.0188 0.10774,0.27073 0.18748,0.76646 0.114332,0.7108 0.150207,0.83647 0.208772,0.73135 0.01491,-0.0268 0.158744,-0.81042 0.319653,-1.74152 0.160909,-0.9311 0.303185,-1.71253 0.316169,-1.73653 0.03014,-0.0557 0.482757,-0.0584 0.534458,-0.003 0.02084,0.0223 0.161911,1.18519 0.313463,2.58424 0.151553,1.39906 0.288377,2.55221 0.304055,2.56256 0.05494,0.0363 0.08706,-0.11733 0.25258,-1.20812 0.131814,-0.8686 0.18446,-1.10867 0.250689,-1.14313 0.111578,-0.0581 0.35536,-0.0555 0.446588,0.005 0.04466,0.0295 0.128679,0.30476 0.215173,0.70502 0.07804,0.36116 0.163295,0.67078 0.189451,0.68805 0.02816,0.0186 0.08317,-0.0733 0.13487,-0.22508 0.186109,-0.54668 0.163005,-0.51827 0.421371,-0.51827 0.12618,0 0.254426,0.0198 0.284993,0.0443 0.03056,0.0243 0.09891,0.20887 0.151875,0.41013 0.05297,0.20125 0.117969,0.36591 0.144454,0.36591 0.02649,0 0.07607,-0.055 0.11019,-0.12216 0.05729,-0.11282 0.08025,-0.12296 0.300152,-0.13257 0.148746,-0.007 0.258772,0.007 0.293149,0.0349 0.03026,0.0249 0.153334,0.35882 0.273481,0.74201 0.120146,0.38319 0.242003,0.71226 0.270793,0.73127 0.0288,0.019 0.0523,0.0261 0.0523,0.0156 0,-0.0536 0.31972,-1.05144 0.34583,-1.07933 0.0174,-0.0186 0.52889,-0.0327 1.19061,-0.0327 h 1.16009 v 0.19198 0.19197 h -0.92642 c -0.91044,0 -0.92728,9.8e-4 -0.97712,0.0785 -0.0279,0.0432 -0.16028,0.45541 -0.29419,0.91603 -0.1339,0.46063 -0.27117,0.84914 -0.30504,0.86336 -0.10009,0.0421 -0.44102,0.0306 -0.495382,-0.0167 -0.02761,-0.024 -0.163664,-0.41275 -0.302337,-0.8639 -0.13867,-0.45115 -0.271024,-0.83346 -0.294117,-0.84958 -0.0231,-0.0162 -0.08152,0.0492 -0.129842,0.1453 -0.09889,0.19655 -0.132347,0.21171 -0.416548,0.18879 -0.226296,-0.0182 -0.263256,-0.0572 -0.322592,-0.33969 -0.08559,-0.4075 -0.141734,-0.39341 -0.299252,0.0751 -0.06875,0.20448 -0.157736,0.39339 -0.197752,0.41981 -0.07126,0.0471 -0.407062,0.0336 -0.496996,-0.0199 -0.02095,-0.0125 -0.07676,-0.19511 -0.124008,-0.40589 -0.08551,-0.38142 -0.104135,-0.42856 -0.155837,-0.39443 -0.01492,0.01 -0.132035,0.69526 -0.260247,1.52313 -0.128214,0.82787 -0.24827,1.52139 -0.266791,1.54118 -0.04089,0.0437 -0.485523,0.0482 -0.525621,0.005 z"
         id="path2390"
         inkscape:connector-curvature="0" />
    </g>
  </g>
</svg>
